HIERARCHY
ROOT Hips
{
	OFFSET -0.001795 -0.223333 0.028219
	CHANNELS 6 Xposition Yposition Zposition Zrotation Yrotation Xrotation 
	JOINT LeftUpLeg
	{
		OFFSET 0.069520 -0.091406 -0.006815
		CHANNELS 3 Zrotation Yrotation Xrotation
		JOINT LeftLeg
		{
			OFFSET 0.034277 -0.375199 -0.004496
			CHANNELS 3 Zrotation Yrotation Xrotation
			JOINT LeftFoot
			{
				OFFSET -0.013596 -0.397961 -0.043693
				CHANNELS 3 Zrotation Yrotation Xrotation
				JOINT LeftToe
				{
					OFFSET 0.026358 -0.055791 0.119288
					CHANNELS 3 Zrotation Yrotation Xrotation
					End Site
					{
						OFFSET 0.000000 0.000000 0.000000
					}
				}
			}
		}
	}
	JOINT RightUpLeg
	{
		OFFSET -0.067670 -0.090522 -0.004320
		CHANNELS 3 Zrotation Yrotation Xrotation
		JOINT RightLeg
		{
			OFFSET -0.038290 -0.382569 -0.008850
			CHANNELS 3 Zrotation Yrotation Xrotation
			JOINT RightFoot
			{
				OFFSET 0.015774 -0.398415 -0.042312
				CHANNELS 3 Zrotation Yrotation Xrotation
				JOINT RightToe
				{
					OFFSET -0.025372 -0.048144 0.123348
					CHANNELS 3 Zrotation Yrotation Xrotation
					End Site
					{
						OFFSET 0.000000 0.000000 0.000000
					}
				}
			}
		}
	}
	JOINT Spine
	{
		OFFSET -0.002533 0.108963 -0.026696
		CHANNELS 3 Zrotation Yrotation Xrotation
		JOINT Spine1
		{
			OFFSET 0.005487 0.135180 0.001092
			CHANNELS 3 Zrotation Yrotation Xrotation
			JOINT Spine2
			{
				OFFSET 0.001457 0.052922 0.025425
				CHANNELS 3 Zrotation Yrotation Xrotation
				JOINT Neck
				{
					OFFSET -0.002778 0.213870 -0.042857
					CHANNELS 3 Zrotation Yrotation Xrotation
					JOINT Head
					{
						OFFSET 0.005152 0.064970 0.051349
						CHANNELS 3 Zrotation Yrotation Xrotation
						End Site
						{
							OFFSET 0.000000 0.000000 0.000000
						}
					}
				}
				JOINT LeftShoulder
				{
					OFFSET 0.078845 0.121749 -0.034090
					CHANNELS 3 Zrotation Yrotation Xrotation
					JOINT LeftArm
					{
						OFFSET 0.090977 0.030469 -0.008868
						CHANNELS 3 Zrotation Yrotation Xrotation
						JOINT LeftForeArm
						{
							OFFSET 0.259612 -0.012772 -0.027456
							CHANNELS 3 Zrotation Yrotation Xrotation
							JOINT LeftHand
							{
								OFFSET 0.249234 0.008986 -0.001171
								CHANNELS 3 Zrotation Yrotation Xrotation
								End Site
								{
									OFFSET 0.000000 0.000000 0.000000
								}
							}
						}
					}
				}
				JOINT RightShoulder
				{
					OFFSET -0.081759 0.118833 -0.038615
					CHANNELS 3 Zrotation Yrotation Xrotation
					JOINT RightArm
					{
						OFFSET -0.096012 0.032551 -0.009143
						CHANNELS 3 Zrotation Yrotation Xrotation
						JOINT RightForeArm
						{
							OFFSET -0.253742 -0.013329 -0.021401
							CHANNELS 3 Zrotation Yrotation Xrotation
							JOINT RightHand
							{
								OFFSET -0.255298 0.007772 -0.005559
								CHANNELS 3 Zrotation Yrotation Xrotation
								End Site
								{
									OFFSET 0.000000 0.000000 0.000000
								}
							}
						}
					}
				}
			}
		}
	}
}
MOTION
Frames: 15
Frame Time: 0.033333
-0.008290 0.882012 0.083039 1.426764 1.843347 22.022416 2.405739 -3.641514 -45.363988 -5.832926 1.386552 56.770101 5.177614 2.767337 -21.597296 0.000000 0.000000 0.000000 -6.882745 2.240461 -67.417531 10.257923 -5.053397 57.454768 -4.909211 -12.808233 0.518732 0.000000 0.000000 0.000000 -2.941705 0.238674 -1.565163 10.993025 -3.060015 -13.564004 -8.208286 -3.661930 19.771264 3.752709 2.156614 -54.500487 0.000000 0.000000 0.000000 -1.142673 -13.566000 4.982651 -78.443642 -50.988424 30.670384 -154.632254 -73.832177 157.499938 0.000000 0.000000 0.000000 -5.627446 12.476344 4.125265 63.981667 63.679279 32.480956 -85.322057 83.789925 -72.396845 0.000000 0.000000 0.000000 
-0.005204 0.883085 0.075580 1.312611 1.810164 20.152254 2.041146 -3.672338 -44.295657 -4.588312 0.521360 57.613663 4.598145 0.542793 -21.413436 0.000000 0.000000 0.000000 -6.659465 2.362886 -65.802864 10.006777 -4.844053 57.191396 -4.760569 -12.544955 1.329150 0.000000 0.000000 0.000000 -3.010961 0.232690 -2.131434 10.880595 -3.110360 -13.148701 -7.895473 -3.185777 19.811746 3.940313 1.883110 -51.851647 0.000000 0.000000 0.000000 -5.135539 -10.835648 4.162812 -64.972669 -42.495133 16.954143 -29.526193 -80.869420 32.316618 0.000000 0.000000 0.000000 -1.568319 10.022602 3.494678 54.406474 51.504764 18.734042 -9.245295 68.661597 -1.921827 0.000000 0.000000 0.000000 
-0.001526 0.887568 0.066792 1.184352 1.782941 18.062118 1.577630 -3.680716 -42.666056 -3.397849 -0.322656 57.468099 3.858037 -1.707004 -20.544436 0.000000 0.000000 0.000000 -6.400736 2.472397 -63.546144 9.485391 -4.384318 56.043675 -4.476746 -12.051529 2.547989 0.000000 0.000000 0.000000 -3.050984 0.222272 -2.723102 10.736870 -3.156394 -12.700103 -7.561820 -2.668039 19.857314 4.083583 1.624975 -49.198736 0.000000 0.000000 0.000000 -8.601719 -8.505012 3.253405 -57.298792 -33.479199 8.743913 -4.095404 -62.577984 6.864978 0.000000 0.000000 0.000000 1.956569 7.981073 2.853020 50.552225 40.357998 11.256841 -1.696355 51.444141 1.992259 0.000000 0.000000 0.000000 
0.003559 0.895455 0.058462 1.060470 1.755507 16.011336 1.069191 -3.651706 -40.615975 -2.485165 -0.938948 56.271384 3.030864 -3.520081 -18.960090 0.000000 0.000000 0.000000 -6.145991 2.543144 -60.770131 8.728614 -3.725451 53.958078 -4.062661 -11.361604 4.092326 0.000000 0.000000 0.000000 -3.073939 0.210732 -3.304677 10.582823 -3.194297 -12.264467 -7.239025 -2.163207 19.906331 4.177397 1.407965 -46.811572 0.000000 0.000000 0.000000 -11.619418 -6.514555 2.310155 -52.687832 -24.853775 3.416273 0.625494 -46.130090 2.408528 0.000000 0.000000 0.000000 5.029101 6.255909 2.228915 48.795885 30.454371 6.227563 0.456847 36.531227 1.867157 0.000000 0.000000 0.000000 
0.010861 0.906743 0.051450 0.947905 1.725683 14.111760 0.538500 -3.571588 -38.155466 -2.008258 -1.195459 53.960576 2.195552 -4.549929 -16.651651 0.000000 0.000000 0.000000 -5.925372 2.556785 -57.483707 7.761530 -2.924350 50.825233 -3.515842 -10.508135 5.970549 0.000000 0.000000 0.000000 -3.087544 0.199626 -3.856211 10.433181 -3.224633 -11.863080 -6.939888 -1.695007 19.956486 4.228326 1.243577 -44.846752 0.000000 0.000000 0.000000 -14.219092 -4.830155 1.381061 -49.731164 -16.961541 -0.322950 2.938090 -32.338771 0.767889 0.000000 0.000000 0.000000 7.679692 4.802612 1.643792 47.981919 21.801187 2.454363 0.793604 23.923595 1.145374 0.000000 0.000000 0.000000 
0.021193 0.921482 0.045657 0.841987 1.694062 12.328661 -0.019205 -3.421824 -35.151671 -2.052541 -1.056518 50.417941 1.444503 -4.578354 -13.620509 0.000000 0.000000 0.000000 -5.762295 2.498611 -53.574567 6.599601 -2.044241 46.462797 -2.824014 -9.527260 8.288652 0.000000 0.000000 0.000000 -3.092955 0.188879 -4.370275 10.294391 -3.250803 -11.493684 -6.659487 -1.257737 20.005627 4.245715 1.133754 -43.355116 0.000000 0.000000 0.000000 -16.366257 -3.462198 0.525730 -47.786018 -10.020236 -3.072304 4.697403 -21.457110 0.094169 0.000000 0.000000 0.000000 9.866891 3.644957 1.141105 47.729378 14.504151 -0.474249 0.033631 13.800861 0.515286 0.000000 0.000000 0.000000 
0.031493 0.941026 0.039188 0.748770 1.663672 10.662518 -0.629594 -3.174748 -31.360821 -2.103079 -0.864236 45.165844 0.448166 -4.596293 -9.671223 0.000000 0.000000 0.000000 -5.202764 2.512099 -47.980745 5.483750 -1.307600 41.764642 -2.323576 -8.744111 9.451985 0.000000 0.000000 0.000000 -3.089441 0.178483 -4.825333 10.173296 -3.274776 -11.162589 -6.402537 -0.859063 20.050856 4.238240 1.098333 -42.604551 0.000000 0.000000 0.000000 -17.833269 -2.503708 -0.138533 -47.119543 -4.886899 -4.940243 6.446332 -14.595899 -0.166318 0.000000 0.000000 0.000000 11.347475 2.889448 0.805879 48.176760 9.530184 -2.416433 -1.508513 7.025848 0.184768 0.000000 0.000000 0.000000 
0.043685 0.963131 0.032277 0.658087 1.632199 9.104975 -1.274718 -2.822355 -26.859209 -2.117940 -0.651493 38.280966 -0.759003 -4.545288 -4.935637 0.000000 0.000000 0.000000 -4.603581 2.440738 -41.776456 4.181832 -0.584656 35.109085 -1.693762 -8.008961 11.651086 0.000000 0.000000 0.000000 -3.079794 0.168991 -5.255646 10.052475 -3.291544 -10.864977 -6.169660 -0.496155 20.095203 2.161376 2.164023 -47.230417 0.000000 0.000000 0.000000 -17.738931 -2.096366 -0.410936 -45.953766 -2.871700 -5.545277 7.212731 -15.658773 -0.291140 0.000000 0.000000 0.000000 11.179219 2.720464 0.776759 47.270432 7.216969 -3.287829 -1.963503 8.468129 0.199386 0.000000 0.000000 0.000000 
0.056562 0.984178 0.025924 0.567638 1.601454 7.612102 -1.845882 -2.343144 -21.701217 -2.171178 -0.403361 30.104758 -2.128051 -4.408611 0.367422 0.000000 0.000000 0.000000 -4.010849 2.268494 -35.191978 2.779263 -0.019495 27.195975 -0.942176 -7.333357 14.662129 0.000000 0.000000 0.000000 -3.065803 0.159925 -5.646795 9.933856 -3.303163 -10.595961 -5.960253 -0.167178 20.137286 -0.566077 3.223408 -53.086527 0.000000 0.000000 0.000000 -14.684772 -2.411267 -0.066893 -41.731350 -3.871670 -4.755474 10.514239 -32.394152 -1.605128 0.000000 0.000000 0.000000 7.882259 3.371922 1.157791 42.447765 6.724370 -3.235305 -3.921127 26.780338 0.312335 0.000000 0.000000 0.000000 
0.069426 1.002771 0.020477 0.480563 1.571638 6.194194 -2.269791 -1.781613 -16.296572 -2.373809 -0.127592 21.406391 -3.510551 -4.064609 5.903259 0.000000 0.000000 0.000000 -3.470446 2.004482 -28.594196 1.446525 0.288911 18.912442 -0.131443 -6.788127 18.161629 0.000000 0.000000 0.000000 -3.049107 0.151351 -5.993455 9.822609 -3.311898 -10.353186 -5.772722 0.128932 20.176429 -3.064177 3.892918 -58.106819 0.000000 0.000000 0.000000 -9.276980 -3.307526 0.669871 -34.517639 -5.505133 -3.583307 42.567166 -56.141611 -20.688130 0.000000 0.000000 0.000000 2.128978 4.689788 1.690624 34.412290 5.997016 -2.943972 -28.957186 54.986818 -11.657514 0.000000 0.000000 0.000000 
0.082146 1.019911 0.015573 0.406080 1.541778 4.922443 -2.559184 -1.249294 -11.438897 -2.761777 0.119934 13.391408 -4.684760 -3.350936 11.326623 0.000000 0.000000 0.000000 -3.008565 1.690540 -22.505686 0.384435 0.343919 11.321331 0.619755 -6.487225 21.798720 0.000000 0.000000 0.000000 -3.031454 0.143934 -6.300166 9.727818 -3.320459 -10.137191 -5.604650 0.392140 20.212410 -5.334163 4.278138 -62.468811 0.000000 0.000000 0.000000 -4.469955 -4.172352 1.248202 -27.894530 -6.278947 -2.808188 98.349861 -54.982395 -58.411501 0.000000 0.000000 0.000000 -2.947610 5.926904 2.005471 27.426261 5.007947 -2.626761 -87.816649 59.746547 -51.523351 0.000000 0.000000 0.000000 
0.090775 1.035621 0.010857 0.347635 1.516569 3.873903 -2.672608 -0.869700 -8.073818 -3.603724 0.344876 7.933670 -1.618981 2.920129 14.069261 0.000000 0.000000 0.000000 -2.655543 1.427943 -18.081446 -0.165797 0.266416 6.275421 1.129933 -6.411208 24.558243 0.000000 0.000000 0.000000 -3.009157 0.138488 -6.570376 9.654876 -3.329094 -9.957290 -5.462351 0.611243 20.244617 -7.242940 4.448735 -65.977219 0.000000 0.000000 0.000000 -0.247999 -4.994739 1.696688 -21.645575 -7.155158 -2.132482 128.058586 -39.207707 -67.940638 0.000000 0.000000 0.000000 -7.375736 7.069538 2.165672 21.002211 4.401533 -2.167335 -122.534263 44.741964 -64.860033 0.000000 0.000000 0.000000 
0.097858 1.048781 0.008559 0.298638 1.497234 3.022370 -2.759617 -0.638864 -6.018363 -4.243790 0.455655 4.664099 1.501470 8.402800 16.386636 0.000000 0.000000 0.000000 -2.340156 1.225837 -14.904970 -0.371489 0.177739 3.289695 1.404443 -6.443000 26.255535 0.000000 0.000000 0.000000 -2.983370 0.134300 -6.766062 9.596864 -3.336202 -9.810542 -5.352633 0.781851 20.270122 -8.759389 4.492425 -68.689638 0.000000 0.000000 0.000000 3.443491 -5.761627 2.038187 -15.912267 -8.043423 -1.591845 142.636682 -25.071146 -61.557681 0.000000 0.000000 0.000000 -11.217565 8.083592 2.214687 15.232698 3.957177 -1.679318 -137.454357 30.156632 -58.148883 0.000000 0.000000 0.000000 
0.102707 1.057869 0.006684 0.258415 1.479067 2.381747 -2.832798 -0.507637 -4.841396 -4.703266 0.513680 2.861316 4.682095 13.347713 18.502536 0.000000 0.000000 0.000000 -2.106646 1.081086 -12.775800 -0.424253 0.114918 1.623054 1.548462 -6.494062 27.253760 0.000000 0.000000 0.000000 -2.957333 0.131694 -6.916740 9.550448 -3.340201 -9.700839 -5.273481 0.905555 20.290282 -9.871896 4.474119 -70.639274 0.000000 0.000000 0.000000 6.606727 -6.447524 2.287139 -10.746571 -8.827901 -1.189671 150.479177 -15.449411 -49.129199 0.000000 0.000000 0.000000 -14.488235 8.952886 2.193073 10.148727 3.613842 -1.206887 -144.485495 19.877224 -44.718679 0.000000 0.000000 0.000000 
0.104495 1.061530 0.002548 0.131196 1.798730 2.310133 -2.554559 -0.485978 -4.721636 -4.982125 0.538312 1.995072 7.082875 16.784165 20.060516 0.000000 0.000000 0.000000 -1.900157 1.043796 -12.134442 -0.414696 0.083840 0.913869 1.481729 -6.651922 27.803758 0.000000 0.000000 0.000000 -2.984696 0.125281 -6.774112 9.595990 -3.326551 -9.928253 -5.399312 0.739784 20.256356 -10.931001 4.526349 -71.034204 0.000000 0.000000 0.000000 9.230005 -7.199696 2.504189 -6.243027 -9.462778 -0.905763 153.664366 -8.798282 -32.389255 0.000000 0.000000 0.000000 -17.111100 9.499326 2.111181 5.803601 3.435919 -0.779138 -146.637955 12.566668 -27.902613 0.000000 0.000000 0.000000 
